<svg width="320" height="150" viewBox="0 0 320 150" fill="none" xmlns="http://www.w3.org/2000/svg">
<path d="M114.547 70.2353C113.599 70.2353 112.705 70.0702 111.865 69.74C111.038 69.3966 110.32 68.9145 109.71 68.2937C109.114 67.6729 108.667 66.9399 108.369 66.0946L110.95 64.9653C111.329 65.771 111.851 66.405 112.515 66.8673C113.192 67.3295 113.938 67.5607 114.75 67.5607C115.184 67.5607 115.557 67.4946 115.868 67.3626C116.18 67.2305 116.424 67.0522 116.6 66.8276C116.776 66.5899 116.864 66.3125 116.864 65.9955C116.864 65.6521 116.756 65.3616 116.539 65.1238C116.322 64.8729 115.983 64.6748 115.523 64.5295L112.556 63.5785C111.35 63.1955 110.442 62.654 109.832 61.9539C109.223 61.2407 108.918 60.3888 108.918 59.3982C108.918 58.5265 109.135 57.7604 109.568 57.1C110.015 56.4397 110.632 55.9245 111.418 55.5547C112.217 55.1849 113.131 55 114.161 55C115.069 55 115.909 55.1519 116.681 55.4557C117.453 55.7595 118.117 56.1887 118.673 56.7434C119.242 57.2982 119.669 57.9652 119.953 58.7444L117.392 59.8737C117.108 59.1869 116.681 58.652 116.112 58.2689C115.543 57.8727 114.893 57.6746 114.161 57.6746C113.741 57.6746 113.368 57.7406 113.043 57.8727C112.718 58.0048 112.468 58.1963 112.291 58.4473C112.115 58.685 112.027 58.9624 112.027 59.2793C112.027 59.6228 112.142 59.9265 112.373 60.1907C112.603 60.4416 112.948 60.6398 113.409 60.785L116.315 61.6964C117.535 62.0794 118.442 62.6143 119.039 63.3011C119.648 63.9879 119.953 64.8266 119.953 65.8172C119.953 66.6757 119.723 67.4418 119.262 68.1154C118.801 68.7758 118.165 69.2975 117.352 69.6805C116.552 70.0504 115.618 70.2353 114.547 70.2353Z" fill="#313131"/>
<path d="M120.882 69.9975L126.003 55.2377H130.19L135.311 69.9975H131.876L130.86 66.9861H125.312L124.296 69.9975H120.882ZM126.186 64.3115H129.986L127.67 57.3378H128.523L126.186 64.3115Z" fill="#313131"/>
<path d="M143.463 70.2353C142.38 70.2353 141.37 70.0438 140.435 69.6607C139.514 69.2777 138.708 68.7428 138.017 68.056C137.326 67.3692 136.784 66.5635 136.391 65.6389C136.012 64.7144 135.822 63.704 135.822 62.6077C135.822 61.5115 136.012 60.5011 136.391 59.5765C136.77 58.6388 137.306 57.8331 137.997 57.1595C138.688 56.4727 139.494 55.9444 140.415 55.5745C141.35 55.1915 142.366 55 143.463 55C144.561 55 145.543 55.1783 146.41 55.5349C147.291 55.8915 148.036 56.367 148.646 56.9614C149.256 57.5557 149.689 58.2161 149.946 58.9425L147.162 60.2501C146.905 59.5369 146.451 58.9491 145.801 58.4869C145.164 58.0114 144.385 57.7736 143.463 57.7736C142.569 57.7736 141.783 57.9784 141.106 58.3878C140.429 58.7973 139.9 59.3652 139.521 60.0916C139.155 60.8049 138.972 61.6436 138.972 62.6077C138.972 63.5719 139.155 64.4172 139.521 65.1436C139.9 65.8701 140.429 66.438 141.106 66.8474C141.783 67.2569 142.569 67.4616 143.463 67.4616C144.385 67.4616 145.164 67.2305 145.801 66.7682C146.451 66.2927 146.905 65.6984 147.162 64.9851L149.946 66.2927C149.689 67.0192 149.256 67.6795 148.646 68.2739C148.036 68.8683 147.291 69.3437 146.41 69.7003C145.543 70.057 144.561 70.2353 143.463 70.2353Z" fill="#313131"/>
<path d="M151.968 69.9975V55.2377H157.76C158.803 55.2377 159.724 55.416 160.524 55.7727C161.337 56.1293 161.973 56.6576 162.434 57.3576C162.895 58.0576 163.125 58.9227 163.125 59.9529C163.125 60.9567 162.888 61.8153 162.414 62.5285C161.94 63.2285 161.303 63.7568 160.503 64.1134L163.958 69.9975H160.422L156.683 63.4794L158.715 64.6483H155.118V69.9975H151.968ZM155.118 61.9737H157.78C158.227 61.9737 158.613 61.8879 158.939 61.7162C159.264 61.5445 159.514 61.3068 159.69 61.003C159.88 60.6992 159.975 60.3492 159.975 59.9529C159.975 59.5435 159.88 59.1869 159.69 58.8831C159.514 58.5793 159.264 58.3416 158.939 58.1699C158.613 57.9982 158.227 57.9123 157.78 57.9123H155.118V61.9737Z" fill="#313131"/>
<path d="M165.523 69.9975V55.2377H175.705V57.9123H168.673V61.2605H175.298V63.9351H168.673V67.3229H175.705V69.9975H165.523Z" fill="#313131"/>
<path d="M177.49 69.9975V55.2377H182.429C184.068 55.2377 185.491 55.5547 186.697 56.1887C187.903 56.8227 188.837 57.6944 189.501 58.8039C190.165 59.9133 190.497 61.1813 190.497 62.6077C190.497 64.0342 190.165 65.3087 189.501 66.4314C188.837 67.5409 187.903 68.4126 186.697 69.0466C185.491 69.6805 184.068 69.9975 182.429 69.9975H177.49ZM180.641 67.3229H182.51C183.499 67.3229 184.353 67.1314 185.071 66.7484C185.789 66.3522 186.344 65.804 186.737 65.104C187.144 64.3908 187.347 63.5587 187.347 62.6077C187.347 61.6436 187.144 60.8115 186.737 60.1114C186.344 59.4114 185.789 58.8699 185.071 58.4869C184.353 58.1038 183.499 57.9123 182.51 57.9123H180.641V67.3229Z" fill="#313131"/>
<path d="M196.166 69.9975V55.2377H202.568C203.611 55.2377 204.505 55.4094 205.25 55.7528C205.996 56.0963 206.565 56.5915 206.958 57.2387C207.35 57.8727 207.547 58.6454 207.547 59.5567C207.547 60.2039 207.364 60.8247 206.998 61.419C206.632 62.0002 206.029 62.4889 205.189 62.8851V61.3794C205.989 61.6832 206.605 62.0464 207.039 62.469C207.472 62.8917 207.77 63.354 207.933 63.8559C208.096 64.3446 208.177 64.8597 208.177 65.4012C208.177 66.8541 207.682 67.9833 206.693 68.789C205.704 69.5947 204.329 69.9975 202.568 69.9975H196.166ZM199.316 67.3229H202.934C203.57 67.3229 204.078 67.1446 204.458 66.788C204.837 66.4314 205.027 65.9691 205.027 65.4012C205.027 64.82 204.837 64.3512 204.458 63.9946C204.078 63.6379 203.57 63.4596 202.934 63.4596H199.316V67.3229ZM199.316 60.785H202.791C203.279 60.785 203.665 60.653 203.95 60.3888C204.248 60.1114 204.397 59.7482 204.397 59.2992C204.397 58.8501 204.248 58.4935 203.95 58.2293C203.665 57.952 203.279 57.8133 202.791 57.8133H199.316V60.785Z" fill="#313131"/>
<path d="M210.198 69.9975V55.2377H215.99C217.033 55.2377 217.954 55.416 218.754 55.7727C219.566 56.1293 220.203 56.6576 220.664 57.3576C221.125 58.0576 221.355 58.9227 221.355 59.9529C221.355 60.9567 221.118 61.8153 220.644 62.5285C220.169 63.2285 219.533 63.7568 218.733 64.1134L222.188 69.9975H218.652L214.912 63.4794L216.945 64.6483H213.348V69.9975H210.198ZM213.348 61.9737H216.01C216.457 61.9737 216.843 61.8879 217.168 61.7162C217.493 61.5445 217.744 61.3068 217.92 61.003C218.11 60.6992 218.205 60.3492 218.205 59.9529C218.205 59.5435 218.11 59.1869 217.92 58.8831C217.744 58.5793 217.493 58.3416 217.168 58.1699C216.843 57.9982 216.457 57.9123 216.01 57.9123H213.348V61.9737Z" fill="#313131"/>
<path d="M223.753 69.9975V55.2377H233.935V57.9123H226.903V61.2605H233.528V63.9351H226.903V67.3229H233.935V69.9975H223.753Z" fill="#313131"/>
<path d="M234.602 69.9975L239.724 55.2377H243.91L249.032 69.9975H245.597L244.581 66.9861H239.033L238.017 69.9975H234.602ZM239.907 64.3115H243.707L241.39 57.3378H242.244L239.907 64.3115Z" fill="#313131"/>
<path d="M252.316 69.9975V57.9123H248.475V55.2377H259.246V57.9123H255.466V69.9975H252.316Z" fill="#313131"/>
<path d="M260.806 69.9975V55.2377H263.956V61.6171H269.85V55.2377H273V69.9975H269.85V64.2917H263.956V69.9975H260.806Z" fill="#313131"/>
<path d="M107.922 94.7623L113.043 80.0025H117.23L122.351 94.7623H118.917L117.9 91.7509H112.352L111.336 94.7623H107.922ZM113.226 89.0763H117.027L114.71 82.1025H115.563L113.226 89.0763Z" fill="#313131"/>
<path d="M123.925 94.7623V80.0025H127.075V92.0877H133.476V94.7623H123.925Z" fill="#313131"/>
<path d="M141.836 95C140.752 95 139.743 94.8085 138.808 94.4255C137.887 94.0424 137.081 93.5075 136.39 92.8207C135.699 92.1339 135.157 91.3282 134.764 90.4037C134.384 89.4791 134.195 88.4687 134.195 87.3725C134.195 86.2762 134.384 85.2658 134.764 84.3413C135.143 83.4035 135.678 82.5978 136.369 81.9242C137.06 81.2374 137.866 80.7091 138.788 80.3393C139.722 79.9562 140.739 79.7647 141.836 79.7647C142.934 79.7647 143.916 79.943 144.783 80.2997C145.664 80.6563 146.409 81.1317 147.018 81.7261C147.628 82.3205 148.062 82.9808 148.319 83.7073L145.535 85.0149C145.277 84.3016 144.824 83.7139 144.173 83.2516C143.536 82.7761 142.757 82.5384 141.836 82.5384C140.942 82.5384 140.156 82.7431 139.479 83.1525C138.801 83.562 138.273 84.1299 137.893 84.8564C137.528 85.5696 137.345 86.4083 137.345 87.3725C137.345 88.3366 137.528 89.1819 137.893 89.9084C138.273 90.6348 138.801 91.2027 139.479 91.6122C140.156 92.0216 140.942 92.2263 141.836 92.2263C142.757 92.2263 143.536 91.9952 144.173 91.5329C144.824 91.0575 145.277 90.4631 145.535 89.7499L148.319 91.0575C148.062 91.7839 147.628 92.4443 147.018 93.0386C146.409 93.633 145.664 94.1085 144.783 94.4651C143.916 94.8217 142.934 95 141.836 95Z" fill="#313131"/>
<path d="M150.34 94.7623V80.0025H153.49V86.3819H159.384V80.0025H162.534V94.7623H159.384V89.0565H153.49V94.7623H150.34Z" fill="#313131"/>
<path d="M165.225 94.7623V80.0025H175.407V82.6771H168.375V86.0253H175.001V88.6998H168.375V92.0877H175.407V94.7623H165.225Z" fill="#313131"/>
<path d="M177.193 94.7623V80.0025H180.241L185.911 87.3328H184.489L189.996 80.0025H193.045V94.7623H189.895V83.3903L191.155 83.6677L185.322 90.998H184.915L179.286 83.6677L180.343 83.3903V94.7623H177.193Z" fill="#313131"/>
<path d="M199.652 94.7623V88.3234L194.612 80.0025H198.209L201.867 86.263H200.587L204.224 80.0025H207.822L202.802 88.3036V94.7623H199.652Z" fill="#313131"/>
<path d="M48 56.8243V55.2765H62.8295V56.8243C59.3588 56.8243 57.4657 57.4434 58.7278 58.6817L69.4555 69.2067V60.8486C69.4555 58.3721 67.8779 56.8243 63.7761 56.8243V55.2765H72.9263V94.9001H63.4606V93.6619H66.3003C68.1934 93.6619 69.4555 91.8045 69.4555 90.5663V80.3508L57.7812 91.8045C56.8346 92.7332 59.9898 93.6619 60.9364 93.6619H62.514V94.9001H48.3155V93.6619C50.8397 93.6619 51.1552 92.7332 52.4173 91.8045L66.6158 78.1839H57.4657C54.9415 78.1839 53.9949 79.7317 53.9949 84.0655H52.4173V66.4207H53.6794C53.6794 69.8258 54.9415 71.9927 57.4657 71.9927H67.2469L55.8881 60.8486C52.4407 57.3488 51.4707 56.8243 48 56.8243Z" fill="#313131"/>
<path d="M97.537 56.8243V55.2765H82.7074V56.8243C86.1782 56.8243 88.0713 57.4434 86.8092 58.6817L76.0815 69.2067V60.8486C76.0815 58.3721 77.6591 56.8243 81.7609 56.8243V55.2765H72.6107V94.9001H82.0764V93.6619H79.2367C77.3436 93.6619 76.0815 91.8045 76.0815 90.5663V80.3508L87.7558 91.8045C88.7024 92.7332 85.5471 93.6619 84.6006 93.6619H83.023V94.9001H97.2215V93.6619C94.6973 93.6619 94.3818 92.7332 93.1197 91.8045L78.9212 78.1839H88.0713C90.5955 78.1839 91.5421 79.7317 91.5421 84.0655H93.1197V66.4207H91.8576C91.8576 69.8258 90.5955 71.9927 88.0713 71.9927H78.2901L89.6489 60.8486C93.0962 57.3488 94.0662 56.8243 97.537 56.8243Z" fill="#313131"/>
</svg>
