<svg width="320" height="150" viewBox="0 0 320 150" fill="none" xmlns="http://www.w3.org/2000/svg">
<path d="M106.151 69.7588C105.125 69.7588 104.172 69.5699 103.29 69.1922C102.424 68.8144 101.672 68.2914 101.037 67.6231C100.415 66.9402 99.9601 66.1484 99.6712 65.2476L102.12 64.1798C102.51 65.1096 103.074 65.8433 103.811 66.3809C104.547 66.9039 105.378 67.1654 106.303 67.1654C106.823 67.1654 107.271 67.0855 107.647 66.9257C108.037 66.7514 108.333 66.5189 108.535 66.2283C108.752 65.9378 108.86 65.5891 108.86 65.1823C108.86 64.7028 108.716 64.3105 108.427 64.0054C108.152 63.6858 107.733 63.4388 107.17 63.2645L104.071 62.262C102.814 61.8697 101.867 61.2813 101.232 60.4968C100.596 59.7122 100.278 58.7897 100.278 57.7291C100.278 56.7992 100.502 55.9784 100.95 55.2665C101.412 54.5546 102.048 54.0025 102.857 53.6102C103.681 53.2034 104.62 53 105.674 53C106.642 53 107.531 53.1743 108.34 53.523C109.149 53.8572 109.843 54.3294 110.421 54.9396C111.013 55.5352 111.454 56.2399 111.743 57.0535L109.315 58.1431C108.997 57.3295 108.521 56.7048 107.885 56.2689C107.249 55.8186 106.512 55.5934 105.674 55.5934C105.183 55.5934 104.75 55.6805 104.374 55.8549C103.998 56.0147 103.702 56.2472 103.485 56.5523C103.283 56.8428 103.182 57.1915 103.182 57.5983C103.182 58.0487 103.327 58.4482 103.616 58.7969C103.904 59.1311 104.345 59.3926 104.938 59.5815L107.907 60.5186C109.192 60.9399 110.153 61.5211 110.789 62.262C111.439 63.003 111.764 63.9183 111.764 65.0079C111.764 65.9378 111.526 66.7586 111.049 67.4705C110.572 68.1824 109.915 68.7418 109.077 69.1486C108.239 69.5554 107.264 69.7588 106.151 69.7588Z" fill="#313131"/>
<path d="M112.927 69.4973L118.497 53.2615H122.311L127.881 69.4973H124.673L123.525 66.0104H117.283L116.113 69.4973H112.927ZM118.128 63.3952H122.679L119.992 55.3101H120.816L118.128 63.3952Z" fill="#313131"/>
<path d="M136.607 69.7588C135.451 69.7588 134.382 69.5481 133.399 69.1268C132.431 68.7055 131.579 68.1171 130.842 67.3616C130.12 66.6061 129.556 65.7198 129.152 64.7028C128.747 63.6858 128.545 62.5744 128.545 61.3685C128.545 60.1626 128.74 59.0512 129.13 58.0342C129.534 57.0026 130.098 56.1164 130.82 55.3754C131.557 54.6199 132.417 54.0388 133.399 53.632C134.382 53.2107 135.451 53 136.607 53C137.763 53 138.796 53.1961 139.706 53.5884C140.631 53.9807 141.411 54.5037 142.047 55.1575C142.682 55.7968 143.137 56.5014 143.412 57.2714L140.768 58.5136C140.464 57.7 139.952 57.0317 139.229 56.5087C138.507 55.9711 137.633 55.7023 136.607 55.7023C135.595 55.7023 134.7 55.9421 133.919 56.4215C133.154 56.9009 132.554 57.562 132.121 58.4047C131.702 59.2473 131.492 60.2353 131.492 61.3685C131.492 62.5017 131.702 63.4969 132.121 64.3541C132.554 65.1968 133.154 65.8579 133.919 66.3373C134.7 66.8167 135.595 67.0565 136.607 67.0565C137.633 67.0565 138.507 66.7949 139.229 66.2719C139.952 65.7344 140.464 65.0588 140.768 64.2452L143.412 65.4874C143.137 66.2574 142.682 66.9693 142.047 67.6231C141.411 68.2623 140.631 68.7781 139.706 69.1704C138.796 69.5627 137.763 69.7588 136.607 69.7588Z" fill="#313131"/>
<path d="M145.805 69.4973V53.2615H151.808C152.906 53.2615 153.874 53.4649 154.712 53.8717C155.565 54.264 156.229 54.8451 156.706 55.6152C157.183 56.3706 157.421 57.2932 157.421 58.3829C157.421 59.5016 157.154 60.4532 156.619 61.2377C156.099 62.0223 155.391 62.6034 154.495 62.9812L158.201 69.4973H154.864L150.898 62.371L152.805 63.5042H148.752V69.4973H145.805ZM148.752 60.8891H151.851C152.386 60.8891 152.848 60.7874 153.238 60.584C153.628 60.366 153.932 60.0682 154.149 59.6904C154.365 59.3127 154.474 58.8768 154.474 58.3829C154.474 57.8744 154.365 57.4385 154.149 57.0753C153.932 56.6975 153.628 56.407 153.238 56.2036C152.848 55.9856 152.386 55.8767 151.851 55.8767H148.752V60.8891Z" fill="#313131"/>
<path d="M160.133 69.4973V53.2615H170.861V55.8767H163.08V60.0391H170.427V62.6543H163.08V66.8821H170.861V69.4973H160.133Z" fill="#313131"/>
<path d="M173.022 69.4973V53.2615H178.288C179.993 53.2615 181.474 53.6102 182.731 54.3076C184.003 54.9904 184.985 55.9421 185.679 57.1625C186.372 58.3683 186.719 59.7703 186.719 61.3685C186.719 62.9521 186.372 64.3614 185.679 65.5963C184.985 66.8167 184.003 67.7756 182.731 68.473C181.474 69.1559 179.993 69.4973 178.288 69.4973H173.022ZM175.969 66.8821H178.353C179.451 66.8821 180.398 66.6569 181.192 66.2065C182.002 65.7416 182.63 65.1024 183.078 64.2888C183.526 63.4606 183.75 62.4872 183.75 61.3685C183.75 60.2353 183.526 59.2618 183.078 58.4482C182.63 57.6346 182.002 57.0026 181.192 56.5523C180.398 56.1019 179.451 55.8767 178.353 55.8767H175.969V66.8821Z" fill="#313131"/>
<path d="M192.916 69.4973V53.2615H199.721C200.791 53.2615 201.701 53.4504 202.452 53.8281C203.218 54.1913 203.803 54.7144 204.208 55.3972C204.627 56.0655 204.836 56.8791 204.836 57.838C204.836 58.579 204.634 59.2764 204.229 59.9302C203.839 60.5694 203.211 61.0997 202.344 61.5211V60.1481C203.138 60.4532 203.767 60.8309 204.229 61.2813C204.692 61.7317 205.017 62.233 205.205 62.785C205.392 63.3371 205.486 63.9183 205.486 64.5285C205.486 66.083 204.973 67.3035 203.948 68.1897C202.936 69.0614 201.527 69.4973 199.721 69.4973H192.916ZM195.864 66.8821H200.025C200.791 66.8821 201.397 66.6715 201.845 66.2501C202.308 65.8143 202.539 65.2404 202.539 64.5285C202.539 63.8166 202.308 63.2427 201.845 62.8068C201.397 62.371 200.791 62.153 200.025 62.153H195.864V66.8821ZM195.864 59.5597H199.873C200.48 59.5597 200.964 59.3853 201.325 59.0367C201.686 58.6734 201.867 58.2085 201.867 57.6419C201.867 57.0753 201.686 56.6249 201.325 56.2907C200.964 55.9566 200.48 55.7895 199.873 55.7895H195.864V59.5597Z" fill="#313131"/>
<path d="M207.901 69.4973V53.2615H213.904C215.002 53.2615 215.97 53.4649 216.808 53.8717C217.66 54.264 218.325 54.8451 218.802 55.6152C219.279 56.3706 219.517 57.2932 219.517 58.3829C219.517 59.5016 219.25 60.4532 218.715 61.2377C218.195 62.0223 217.487 62.6034 216.591 62.9812L220.297 69.4973H216.96L212.994 62.371L214.901 63.5042H210.848V69.4973H207.901ZM210.848 60.8891H213.947C214.482 60.8891 214.944 60.7874 215.334 60.584C215.724 60.366 216.028 60.0682 216.244 59.6904C216.461 59.3127 216.57 58.8768 216.57 58.3829C216.57 57.8744 216.461 57.4385 216.244 57.0753C216.028 56.6975 215.724 56.407 215.334 56.2036C214.944 55.9856 214.482 55.8767 213.947 55.8767H210.848V60.8891Z" fill="#313131"/>
<path d="M222.229 69.4973V53.2615H232.957V55.8767H225.176V60.0391H232.523V62.6543H225.176V66.8821H232.957V69.4973H222.229Z" fill="#313131"/>
<path d="M233.796 69.4973L239.366 53.2615H243.18L248.75 69.4973H245.542L244.394 66.0104H238.152L236.982 69.4973H233.796ZM238.997 63.3952H243.548L240.861 55.3101H241.685L238.997 63.3952Z" fill="#313131"/>
<path d="M252.328 69.4973V55.8767H248.145V53.2615H259.415V55.8767H255.297V69.4973H252.328Z" fill="#313131"/>
<path d="M261.213 69.4973V53.2615H264.161V60.3442H271.031V53.2615H274V69.4973H271.031V62.9594H264.161V69.4973H261.213Z" fill="#313131"/>
<path d="M99.0643 96.7385L104.634 80.5027H108.448L114.018 96.7385H110.811L109.662 93.2516H103.42L102.25 96.7385H99.0643ZM104.266 90.6365H108.817L106.129 82.5513H106.953L104.266 90.6365Z" fill="#313131"/>
<path d="M115.815 96.7385V80.5027H118.762V94.1233H125.676V96.7385H115.815Z" fill="#313131"/>
<path d="M134.744 97C133.589 97 132.519 96.7893 131.537 96.368C130.569 95.9467 129.716 95.3583 128.98 94.6028C128.257 93.8473 127.694 92.961 127.289 91.944C126.885 90.927 126.682 89.8156 126.682 88.6097C126.682 87.4038 126.877 86.2924 127.267 85.2754C127.672 84.2438 128.235 83.3576 128.958 82.6166C129.695 81.8612 130.554 81.28 131.537 80.8732C132.519 80.4519 133.589 80.2412 134.744 80.2412C135.9 80.2412 136.933 80.4373 137.844 80.8296C138.768 81.2219 139.548 81.7449 140.184 82.3987C140.82 83.038 141.275 83.7426 141.549 84.5126L138.905 85.7548C138.602 84.9412 138.089 84.2729 137.367 83.7499C136.644 83.2123 135.77 82.9435 134.744 82.9435C133.733 82.9435 132.837 83.1833 132.057 83.6627C131.291 84.1422 130.692 84.8032 130.258 85.6459C129.839 86.4885 129.63 87.4765 129.63 88.6097C129.63 89.7429 129.839 90.7382 130.258 91.5953C130.692 92.438 131.291 93.0991 132.057 93.5785C132.837 94.0579 133.733 94.2977 134.744 94.2977C135.77 94.2977 136.644 94.0362 137.367 93.5131C138.089 92.9756 138.602 92.3 138.905 91.4864L141.549 92.7286C141.275 93.4986 140.82 94.2105 140.184 94.8643C139.548 95.5035 138.768 96.0193 137.844 96.4116C136.933 96.8039 135.9 97 134.744 97Z" fill="#313131"/>
<path d="M143.942 96.7385V80.5027H146.89V87.5854H153.76V80.5027H156.729V96.7385H153.76V90.2006H146.89V96.7385H143.942Z" fill="#313131"/>
<path d="M159.837 96.7385V80.5027H170.564V83.1179H162.784V87.2803H170.131V89.8955H162.784V94.1233H170.564V96.7385H159.837Z" fill="#313131"/>
<path d="M172.726 96.7385V80.5027H175.543L181.59 88.7623H180.246L186.162 80.5027H188.98V96.7385H186.011V83.8806L187.159 84.1639L181.026 92.3799H180.679L174.698 84.1639L175.673 83.8806V96.7385H172.726Z" fill="#313131"/>
<path d="M196.188 96.7385V89.5468L190.748 80.5027H194.107L198.268 87.5636H197.076L201.216 80.5027H204.575L199.157 89.525V96.7385H196.188Z" fill="#313131"/>
<path d="M46 96.7385L61.2368 78.1809H47.4541V71.466H61.0471L46 53.1526H55.0409L64.6509 64.8731V53.1526H72.048V64.9952L81.7212 53.1526H90.6989L75.6517 71.466H89.2447V78.1809H75.4621L90.6989 96.7385H81.7212L72.048 84.9569V96.7385H64.6509V85.0179L55.0409 96.7385H46Z" fill="#313131"/>
</svg>
