<svg width="14" height="14" viewBox="0 0 14 14" fill="none" xmlns="http://www.w3.org/2000/svg">
<path fill-rule="evenodd" clip-rule="evenodd" d="M2 0C0.895447 0 0 0.895447 0 2V12C0 13.1046 0.895447 14 2 14H12C13.1046 14 14 13.1046 14 12V2C14 0.895447 13.1046 0 12 0H2ZM9.24255 5.2674C9.92999 5.758 10.7546 6.02081 11.6 6.0188V4.34589C11.1425 4.34601 10.6951 4.21191 10.3135 3.96033C10.0452 3.78796 9.81506 3.56287 9.63708 3.29877C9.45911 3.03473 9.33698 2.73718 9.27826 2.42444C9.2641 2.34479 9.25415 2.26453 9.24841 2.18396C9.24402 2.1228 9.24207 2.0614 9.24255 2H7.5528V8.68903C7.5528 8.99017 7.4574 9.28357 7.28015 9.5274C7.10291 9.77124 6.85297 9.953 6.56592 10.0468C6.27893 10.1404 5.96954 10.1414 5.68201 10.0493C5.39441 9.95734 5.14337 9.77704 4.96472 9.53424C4.78607 9.29144 4.6889 8.9986 4.68713 8.69751C4.68536 8.39636 4.77905 8.10242 4.95483 7.85754C5.13062 7.61267 5.37952 7.42944 5.66595 7.33405C5.95239 7.23865 6.26178 7.2359 6.54987 7.32629V5.60529C5.92029 5.51825 5.27905 5.62494 4.71198 5.91113C4.14484 6.19727 3.67883 6.64923 3.37628 7.20654C3.07373 7.76385 2.94904 8.40002 3.01892 9.02991C3.08875 9.65979 3.34979 10.2534 3.76715 10.7314C4.18451 11.2094 4.73828 11.5489 5.35443 11.7046C5.97052 11.8603 6.61963 11.8248 7.21497 11.6027C7.81024 11.3807 8.32336 10.9827 8.68573 10.462C9.04803 9.94135 9.24231 9.32275 9.24255 8.68903V5.2674Z" fill="#FAFAFA"/>
</svg>
