<svg width="169" height="33" viewBox="0 0 169 33" fill="none" xmlns="http://www.w3.org/2000/svg">
<path d="M44.408 12.304C43.6507 12.304 42.9467 12.1653 42.296 11.888C41.656 11.6107 41.1013 11.2267 40.632 10.736C40.1733 10.2347 39.8373 9.65333 39.624 8.992L41.432 8.208C41.72 8.89067 42.136 9.42933 42.68 9.824C43.224 10.208 43.8373 10.4 44.52 10.4C44.904 10.4 45.2347 10.3413 45.512 10.224C45.8 10.096 46.0187 9.92533 46.168 9.712C46.328 9.49867 46.408 9.24267 46.408 8.944C46.408 8.592 46.3013 8.304 46.088 8.08C45.8853 7.84533 45.576 7.664 45.16 7.536L42.872 6.8C41.944 6.512 41.2453 6.08 40.776 5.504C40.3067 4.928 40.072 4.25067 40.072 3.472C40.072 2.78933 40.2373 2.18667 40.568 1.664C40.9093 1.14133 41.3787 0.736 41.976 0.448C42.584 0.149333 43.2773 0 44.056 0C44.7707 0 45.4267 0.128 46.024 0.384C46.6213 0.629333 47.1333 0.976 47.56 1.424C47.9973 1.86133 48.3227 2.37867 48.536 2.976L46.744 3.776C46.5093 3.17867 46.1573 2.72 45.688 2.4C45.2187 2.06933 44.6747 1.904 44.056 1.904C43.6933 1.904 43.3733 1.968 43.096 2.096C42.8187 2.21333 42.6 2.384 42.44 2.608C42.2907 2.82133 42.216 3.07733 42.216 3.376C42.216 3.70667 42.3227 4 42.536 4.256C42.7493 4.50133 43.0747 4.69333 43.512 4.832L45.704 5.52C46.6533 5.82933 47.3627 6.256 47.832 6.8C48.312 7.344 48.552 8.016 48.552 8.816C48.552 9.49867 48.376 10.1013 48.024 10.624C47.672 11.1467 47.1867 11.5573 46.568 11.856C45.9493 12.1547 45.2293 12.304 44.408 12.304Z" fill="#FAFAFA"/>
<path d="M49.4104 12.112L53.5224 0.191999H56.3384L60.4504 12.112H58.0824L57.2344 9.552H52.6264L51.7624 12.112H49.4104ZM53.2504 7.632H56.6104L54.6264 1.696H55.2344L53.2504 7.632Z" fill="#FAFAFA"/>
<path d="M66.8926 12.304C66.0393 12.304 65.25 12.1493 64.5246 11.84C63.81 11.5307 63.1806 11.0987 62.6366 10.544C62.1033 9.98933 61.6873 9.33867 61.3886 8.592C61.09 7.84533 60.9406 7.02933 60.9406 6.144C60.9406 5.25867 61.0846 4.44267 61.3726 3.696C61.6713 2.93867 62.0873 2.288 62.6206 1.744C63.1646 1.18933 63.7993 0.762666 64.5246 0.464C65.25 0.154667 66.0393 0 66.8926 0C67.746 0 68.5086 0.144 69.1806 0.432C69.8633 0.72 70.4393 1.104 70.9086 1.584C71.378 2.05333 71.714 2.57067 71.9166 3.136L69.9646 4.048C69.7406 3.45067 69.362 2.96 68.8286 2.576C68.2953 2.18133 67.65 1.984 66.8926 1.984C66.146 1.984 65.4846 2.16 64.9086 2.512C64.3433 2.864 63.9006 3.34933 63.5806 3.968C63.2713 4.58667 63.1166 5.312 63.1166 6.144C63.1166 6.976 63.2713 7.70667 63.5806 8.336C63.9006 8.95467 64.3433 9.44 64.9086 9.792C65.4846 10.144 66.146 10.32 66.8926 10.32C67.65 10.32 68.2953 10.128 68.8286 9.744C69.362 9.34933 69.7406 8.85333 69.9646 8.256L71.9166 9.168C71.714 9.73333 71.378 10.256 70.9086 10.736C70.4393 11.2053 69.8633 11.584 69.1806 11.872C68.5086 12.16 67.746 12.304 66.8926 12.304Z" fill="#FAFAFA"/>
<path d="M73.6833 12.112V0.191999H78.1152C78.9259 0.191999 79.6406 0.341333 80.2592 0.64C80.8886 0.928 81.3792 1.35467 81.7312 1.92C82.0832 2.47467 82.2592 3.152 82.2592 3.952C82.2592 4.77333 82.0619 5.472 81.6673 6.048C81.2833 6.624 80.7606 7.05067 80.0993 7.328L82.8353 12.112H80.3712L77.4433 6.88L78.8512 7.712H75.8593V12.112H73.6833ZM75.8593 5.792H78.1472C78.5419 5.792 78.8832 5.71733 79.1712 5.568C79.4592 5.408 79.6832 5.18933 79.8432 4.912C80.0032 4.63467 80.0833 4.31467 80.0833 3.952C80.0833 3.57867 80.0032 3.25867 79.8432 2.992C79.6832 2.71467 79.4592 2.50133 79.1712 2.352C78.8832 2.192 78.5419 2.112 78.1472 2.112H75.8593V5.792Z" fill="#FAFAFA"/>
<path d="M84.2614 12.112V0.191999H92.1814V2.112H86.4374V5.168H91.8614V7.088H86.4374V10.192H92.1814V12.112H84.2614Z" fill="#FAFAFA"/>
<path d="M93.777 12.112V0.191999H97.665C98.9237 0.191999 100.017 0.448 100.945 0.96C101.884 1.46133 102.609 2.16 103.121 3.056C103.633 3.94133 103.889 4.97067 103.889 6.144C103.889 7.30667 103.633 8.34133 103.121 9.248C102.609 10.144 101.884 10.848 100.945 11.36C100.017 11.8613 98.9237 12.112 97.665 12.112H93.777ZM95.953 10.192H97.713C98.5237 10.192 99.2223 10.0267 99.809 9.696C100.406 9.35467 100.87 8.88533 101.201 8.288C101.532 7.68 101.697 6.96533 101.697 6.144C101.697 5.312 101.532 4.59733 101.201 4C100.87 3.40267 100.406 2.93867 99.809 2.608C99.2223 2.27733 98.5237 2.112 97.713 2.112H95.953V10.192Z" fill="#FAFAFA"/>
<path d="M108.465 12.112V0.191999H113.489C114.278 0.191999 114.95 0.330666 115.505 0.608C116.07 0.874667 116.502 1.25867 116.8 1.76C117.11 2.25067 117.265 2.848 117.265 3.552C117.265 4.096 117.115 4.608 116.816 5.088C116.528 5.55733 116.064 5.94667 115.424 6.256V5.248C116.011 5.472 116.475 5.74933 116.816 6.08C117.158 6.41067 117.398 6.77867 117.536 7.184C117.675 7.58933 117.744 8.016 117.744 8.464C117.744 9.60533 117.366 10.5013 116.608 11.152C115.862 11.792 114.822 12.112 113.489 12.112H108.465ZM110.641 10.192H113.713C114.278 10.192 114.726 10.0373 115.057 9.728C115.398 9.408 115.568 8.98667 115.568 8.464C115.568 7.94133 115.398 7.52 115.057 7.2C114.726 6.88 114.278 6.72 113.713 6.72H110.641V10.192ZM110.641 4.816H113.601C114.049 4.816 114.406 4.688 114.673 4.432C114.939 4.16533 115.073 3.824 115.073 3.408C115.073 2.992 114.939 2.66133 114.673 2.416C114.406 2.17067 114.049 2.048 113.601 2.048H110.641V4.816Z" fill="#FAFAFA"/>
<path d="M119.527 12.112V0.191999H123.959C124.77 0.191999 125.484 0.341333 126.103 0.64C126.732 0.928 127.223 1.35467 127.575 1.92C127.927 2.47467 128.103 3.152 128.103 3.952C128.103 4.77333 127.906 5.472 127.511 6.048C127.127 6.624 126.604 7.05067 125.943 7.328L128.679 12.112H126.215L123.287 6.88L124.695 7.712H121.703V12.112H119.527ZM121.703 5.792H123.991C124.386 5.792 124.727 5.71733 125.015 5.568C125.303 5.408 125.527 5.18933 125.687 4.912C125.847 4.63467 125.927 4.31467 125.927 3.952C125.927 3.57867 125.847 3.25867 125.687 2.992C125.527 2.71467 125.303 2.50133 125.015 2.352C124.727 2.192 124.386 2.112 123.991 2.112H121.703V5.792Z" fill="#FAFAFA"/>
<path d="M130.105 12.112V0.191999H138.025V2.112H132.281V5.168H137.705V7.088H132.281V10.192H138.025V12.112H130.105Z" fill="#FAFAFA"/>
<path d="M138.645 12.112L142.757 0.191999H145.573L149.685 12.112H147.317L146.469 9.552H141.861L140.997 12.112H138.645ZM142.485 7.632H145.845L143.861 1.696H144.469L142.485 7.632Z" fill="#FAFAFA"/>
<path d="M152.327 12.112V2.112H149.238V0.191999H157.559V2.112H154.518V12.112H152.327Z" fill="#FAFAFA"/>
<path d="M158.886 12.112V0.191999H161.062V5.392H166.134V0.191999H168.326V12.112H166.134V7.312H161.062V12.112H158.886Z" fill="#FAFAFA"/>
<path d="M39.176 32.112L43.288 20.192H46.104L50.216 32.112H47.848L47 29.552H42.392L41.528 32.112H39.176ZM43.016 27.632H46.376L44.392 21.696H45L43.016 27.632Z" fill="#FAFAFA"/>
<path d="M51.5426 32.112V20.192H53.7186V30.192H58.8226V32.112H51.5426Z" fill="#FAFAFA"/>
<path d="M65.5176 32.304C64.6643 32.304 63.875 32.1493 63.1496 31.84C62.435 31.5307 61.8056 31.0987 61.2616 30.544C60.7283 29.9893 60.3123 29.3387 60.0136 28.592C59.715 27.8453 59.5656 27.0293 59.5656 26.144C59.5656 25.2587 59.7096 24.4427 59.9976 23.696C60.2963 22.9387 60.7123 22.288 61.2456 21.744C61.7896 21.1893 62.4243 20.7627 63.1496 20.464C63.875 20.1547 64.6643 20 65.5176 20C66.371 20 67.1336 20.144 67.8056 20.432C68.4883 20.72 69.0643 21.104 69.5336 21.584C70.003 22.0533 70.339 22.5707 70.5416 23.136L68.5896 24.048C68.3656 23.4507 67.987 22.96 67.4536 22.576C66.9203 22.1813 66.275 21.984 65.5176 21.984C64.771 21.984 64.1096 22.16 63.5336 22.512C62.9683 22.864 62.5256 23.3493 62.2056 23.968C61.8963 24.5867 61.7416 25.312 61.7416 26.144C61.7416 26.976 61.8963 27.7067 62.2056 28.336C62.5256 28.9547 62.9683 29.44 63.5336 29.792C64.1096 30.144 64.771 30.32 65.5176 30.32C66.275 30.32 66.9203 30.128 67.4536 29.744C67.987 29.3493 68.3656 28.8533 68.5896 28.256L70.5416 29.168C70.339 29.7333 70.003 30.256 69.5336 30.736C69.0643 31.2053 68.4883 31.584 67.8056 31.872C67.1336 32.16 66.371 32.304 65.5176 32.304Z" fill="#FAFAFA"/>
<path d="M72.3083 32.112V20.192H74.4843V25.392H79.5563V20.192H81.7483V32.112H79.5563V27.312H74.4843V32.112H72.3083Z" fill="#FAFAFA"/>
<path d="M84.0426 32.112V20.192H91.9626V22.112H86.2186V25.168H91.6426V27.088H86.2186V30.192H91.9626V32.112H84.0426Z" fill="#FAFAFA"/>
<path d="M93.5583 32.112V20.192H95.6383L100.102 26.256H99.1103L103.478 20.192H105.558V32.112H103.366V22.672L104.214 22.88L99.6862 28.912H99.4303L95.0143 22.88L95.7343 22.672V32.112H93.5583Z" fill="#FAFAFA"/>
<path d="M110.88 32.112V26.832L106.864 20.192H109.343L112.415 25.376H111.535L114.591 20.192H117.072L113.072 26.816V32.112H110.88Z" fill="#FAFAFA"/>
<path d="M0 32.112L11.2489 18.4874H1.07355V13.5574H11.1089L0 0.112H6.67468L13.7694 8.71704V0.112H19.2305V8.80668L26.372 0.112H33L21.8911 13.5574H31.9264V18.4874H21.7511L33 32.112H26.372L19.2305 23.4621V32.112H13.7694V23.507L6.67468 32.112H0Z" fill="#FAFAFA"/>
</svg>
