<svg width="178" height="33" viewBox="0 0 178 33" fill="none" xmlns="http://www.w3.org/2000/svg">
<path d="M52.392 12.4153C51.6453 12.4153 50.9413 12.282 50.28 12.0153C49.6293 11.738 49.064 11.3487 48.584 10.8473C48.1147 10.346 47.7627 9.75399 47.528 9.07133L49.56 8.15933C49.8587 8.81 50.2693 9.322 50.792 9.69533C51.3253 10.0687 51.912 10.2553 52.552 10.2553C52.8933 10.2553 53.1867 10.202 53.432 10.0953C53.6773 9.98866 53.8693 9.84466 54.008 9.66333C54.1467 9.47133 54.216 9.24733 54.216 8.99133C54.216 8.71399 54.1307 8.47933 53.96 8.28733C53.7893 8.08466 53.5227 7.92466 53.16 7.80733L50.824 7.03933C49.8747 6.73 49.16 6.29266 48.68 5.72733C48.2 5.15133 47.96 4.46333 47.96 3.66333C47.96 2.95933 48.1307 2.34066 48.472 1.80733C48.824 1.27399 49.3093 0.857995 49.928 0.559328C50.5573 0.260661 51.2773 0.111328 52.088 0.111328C52.8027 0.111328 53.464 0.233995 54.072 0.479328C54.68 0.724662 55.2027 1.07133 55.64 1.51933C56.088 1.96733 56.424 2.50599 56.648 3.13533L54.632 4.04733C54.408 3.49266 54.072 3.06066 53.624 2.75133C53.176 2.43133 52.664 2.27133 52.088 2.27133C51.7573 2.27133 51.464 2.32466 51.208 2.43133C50.952 2.53799 50.7547 2.69266 50.616 2.89533C50.4773 3.08733 50.408 3.31133 50.408 3.56733C50.408 3.84466 50.4987 4.08999 50.68 4.30333C50.8613 4.50599 51.1333 4.66599 51.496 4.78333L53.784 5.51933C54.744 5.82866 55.4587 6.26066 55.928 6.81533C56.408 7.36999 56.648 8.04733 56.648 8.84733C56.648 9.54066 56.4667 10.1593 56.104 10.7033C55.7413 11.2367 55.24 11.658 54.6 11.9673C53.9707 12.266 53.2347 12.4153 52.392 12.4153Z" fill="#313131"/>
<path d="M57.3791 12.2233L61.4111 0.303328H64.7071L68.7391 12.2233H66.0351L65.2351 9.79133H60.8671L60.0671 12.2233H57.3791ZM61.5551 7.63133H64.5471L62.7231 1.99933H63.3951L61.5551 7.63133Z" fill="#313131"/>
<path d="M75.1575 12.4153C74.3042 12.4153 73.5095 12.2607 72.7735 11.9513C72.0482 11.642 71.4135 11.21 70.8695 10.6553C70.3255 10.1007 69.8988 9.44999 69.5895 8.70333C69.2908 7.95666 69.1415 7.14066 69.1415 6.25533C69.1415 5.36999 69.2908 4.55399 69.5895 3.80733C69.8882 3.05 70.3095 2.39933 70.8535 1.85533C71.3975 1.30066 72.0322 0.873994 72.7575 0.575328C73.4935 0.265995 74.2935 0.111328 75.1575 0.111328C76.0215 0.111328 76.7948 0.255328 77.4775 0.543328C78.1708 0.831328 78.7575 1.21533 79.2375 1.69533C79.7175 2.17533 80.0588 2.70866 80.2615 3.29533L78.0695 4.35133C77.8668 3.77533 77.5095 3.30066 76.9975 2.92733C76.4962 2.54333 75.8828 2.35133 75.1575 2.35133C74.4535 2.35133 73.8348 2.51666 73.3015 2.84733C72.7682 3.178 72.3522 3.63666 72.0535 4.22333C71.7655 4.79933 71.6215 5.47666 71.6215 6.25533C71.6215 7.03399 71.7655 7.71666 72.0535 8.30333C72.3522 8.89 72.7682 9.34866 73.3015 9.67933C73.8348 10.01 74.4535 10.1753 75.1575 10.1753C75.8828 10.1753 76.4962 9.98866 76.9975 9.61533C77.5095 9.23133 77.8668 8.75133 78.0695 8.17533L80.2615 9.23133C80.0588 9.818 79.7175 10.3513 79.2375 10.8313C78.7575 11.3113 78.1708 11.6953 77.4775 11.9833C76.7948 12.2713 76.0215 12.4153 75.1575 12.4153Z" fill="#313131"/>
<path d="M81.8529 12.2233V0.303328H86.4129C87.2342 0.303328 87.9595 0.447328 88.5889 0.735328C89.2289 1.02333 89.7302 1.44999 90.0929 2.01533C90.4555 2.58066 90.6369 3.27933 90.6369 4.11133C90.6369 4.92199 90.4502 5.61533 90.0769 6.19133C89.7035 6.75666 89.2022 7.18333 88.5729 7.47133L91.2929 12.2233H88.5089L85.5649 6.95933L87.1649 7.90333H84.3329V12.2233H81.8529ZM84.3329 5.74333H86.4289C86.7809 5.74333 87.0849 5.67399 87.3409 5.53533C87.5969 5.39666 87.7942 5.20466 87.9329 4.95933C88.0822 4.71399 88.1569 4.43133 88.1569 4.11133C88.1569 3.78066 88.0822 3.49266 87.9329 3.24733C87.7942 3.00199 87.5969 2.80999 87.3409 2.67133C87.0849 2.53266 86.7809 2.46333 86.4289 2.46333H84.3329V5.74333Z" fill="#313131"/>
<path d="M92.5247 12.2233V0.303328H100.541V2.46333H95.0048V5.16733H100.221V7.32733H95.0048V10.0633H100.541V12.2233H92.5247Z" fill="#313131"/>
<path d="M101.947 12.2233V0.303328H105.835C107.125 0.303328 108.245 0.559328 109.195 1.07133C110.144 1.58333 110.88 2.28733 111.403 3.18333C111.925 4.07933 112.187 5.10333 112.187 6.25533C112.187 7.40733 111.925 8.43666 111.403 9.34333C110.88 10.2393 110.144 10.9433 109.195 11.4553C108.245 11.9673 107.125 12.2233 105.835 12.2233H101.947ZM104.427 10.0633H105.899C106.677 10.0633 107.349 9.90866 107.915 9.59933C108.48 9.27933 108.917 8.83666 109.227 8.27133C109.547 7.69533 109.707 7.02333 109.707 6.25533C109.707 5.47666 109.547 4.80466 109.227 4.23933C108.917 3.67399 108.48 3.23666 107.915 2.92733C107.349 2.61799 106.677 2.46333 105.899 2.46333H104.427V10.0633Z" fill="#313131"/>
<path d="M116.65 12.2233V0.303328H121.69C122.511 0.303328 123.215 0.441994 123.802 0.719328C124.388 0.996662 124.836 1.39666 125.146 1.91933C125.455 2.43133 125.61 3.05533 125.61 3.79133C125.61 4.314 125.466 4.81533 125.178 5.29533C124.89 5.76466 124.415 6.15933 123.754 6.47933V5.26333C124.383 5.50866 124.868 5.80199 125.21 6.14333C125.551 6.48466 125.786 6.858 125.914 7.26333C126.042 7.658 126.106 8.074 126.106 8.51133C126.106 9.68466 125.716 10.5967 124.938 11.2473C124.159 11.898 123.076 12.2233 121.69 12.2233H116.65ZM119.13 10.0633H121.978C122.479 10.0633 122.879 9.91933 123.178 9.63133C123.476 9.34333 123.626 8.97 123.626 8.51133C123.626 8.042 123.476 7.66333 123.178 7.37533C122.879 7.08733 122.479 6.94333 121.978 6.94333H119.13V10.0633ZM119.13 4.78333H121.866C122.25 4.78333 122.554 4.67666 122.778 4.46333C123.012 4.23933 123.13 3.94599 123.13 3.58333C123.13 3.22066 123.012 2.93266 122.778 2.71933C122.554 2.49533 122.25 2.38333 121.866 2.38333H119.13V4.78333Z" fill="#313131"/>
<path d="M127.697 12.2233V0.303328H132.257C133.078 0.303328 133.803 0.447328 134.433 0.735328C135.073 1.02333 135.574 1.44999 135.937 2.01533C136.299 2.58066 136.481 3.27933 136.481 4.11133C136.481 4.92199 136.294 5.61533 135.921 6.19133C135.547 6.75666 135.046 7.18333 134.417 7.47133L137.137 12.2233H134.353L131.409 6.95933L133.009 7.90333H130.177V12.2233H127.697ZM130.177 5.74333H132.273C132.625 5.74333 132.929 5.67399 133.185 5.53533C133.441 5.39666 133.638 5.20466 133.777 4.95933C133.926 4.71399 134.001 4.43133 134.001 4.11133C134.001 3.78066 133.926 3.49266 133.777 3.24733C133.638 3.00199 133.441 2.80999 133.185 2.67133C132.929 2.53266 132.625 2.46333 132.273 2.46333H130.177V5.74333Z" fill="#313131"/>
<path d="M138.368 12.2233V0.303328H146.385V2.46333H140.848V5.16733H146.064V7.32733H140.848V10.0633H146.385V12.2233H138.368Z" fill="#313131"/>
<path d="M146.91 12.2233L150.942 0.303328H154.238L158.27 12.2233H155.566L154.766 9.79133H150.398L149.598 12.2233H146.91ZM151.086 7.63133H154.078L152.254 1.99933H152.926L151.086 7.63133Z" fill="#313131"/>
<path d="M160.856 12.2233V2.46333H157.832V0.303328H166.312V2.46333H163.336V12.2233H160.856Z" fill="#313131"/>
<path d="M167.54 12.2233V0.303328H170.02V5.45533H174.66V0.303328H177.14V12.2233H174.66V7.61533H170.02V12.2233H167.54Z" fill="#313131"/>
<path d="M47.176 32.2233L51.208 20.3033H54.504L58.536 32.2233H55.832L55.032 29.7913H50.664L49.864 32.2233H47.176ZM51.352 27.6313H54.344L52.52 21.9993H53.192L51.352 27.6313Z" fill="#313131"/>
<path d="M59.7747 32.2233V20.3033H62.2547V30.0633H67.2948V32.2233H59.7747Z" fill="#313131"/>
<path d="M73.8763 32.4153C73.0229 32.4153 72.2282 32.2607 71.4922 31.9513C70.7669 31.642 70.1322 31.21 69.5882 30.6553C69.0442 30.1007 68.6176 29.45 68.3083 28.7033C68.0096 27.9567 67.8603 27.1407 67.8603 26.2553C67.8603 25.37 68.0096 24.554 68.3083 23.8073C68.6069 23.05 69.0283 22.3993 69.5723 21.8553C70.1163 21.3007 70.7509 20.874 71.4762 20.5753C72.2122 20.266 73.0123 20.1113 73.8763 20.1113C74.7403 20.1113 75.5136 20.2553 76.1963 20.5433C76.8896 20.8313 77.4763 21.2153 77.9563 21.6953C78.4363 22.1753 78.7776 22.7087 78.9802 23.2953L76.7883 24.3513C76.5856 23.7753 76.2282 23.3007 75.7162 22.9273C75.2149 22.5433 74.6016 22.3513 73.8763 22.3513C73.1723 22.3513 72.5536 22.5167 72.0202 22.8473C71.4869 23.178 71.0709 23.6367 70.7722 24.2233C70.4842 24.7993 70.3402 25.4767 70.3402 26.2553C70.3402 27.034 70.4842 27.7167 70.7722 28.3033C71.0709 28.89 71.4869 29.3487 72.0202 29.6793C72.5536 30.01 73.1723 30.1753 73.8763 30.1753C74.6016 30.1753 75.2149 29.9887 75.7162 29.6153C76.2282 29.2313 76.5856 28.7513 76.7883 28.1753L78.9802 29.2313C78.7776 29.818 78.4363 30.3513 77.9563 30.8313C77.4763 31.3113 76.8896 31.6953 76.1963 31.9833C75.5136 32.2713 74.7403 32.4153 73.8763 32.4153Z" fill="#313131"/>
<path d="M80.5716 32.2233V20.3033H83.0516V25.4553H87.6916V20.3033H90.1716V32.2233H87.6916V27.6153H83.0516V32.2233H80.5716Z" fill="#313131"/>
<path d="M92.2904 32.2233V20.3033H100.306V22.4633H94.7704V25.1673H99.9864V27.3273H94.7704V30.0633H100.306V32.2233H92.2904Z" fill="#313131"/>
<path d="M101.712 32.2233V20.3033H104.112L108.576 26.2233H107.456L111.792 20.3033H114.192V32.2233H111.712V23.0393L112.704 23.2633L108.112 29.1833H107.792L103.36 23.2633L104.192 23.0393V32.2233H101.712Z" fill="#313131"/>
<path d="M119.394 32.2233V27.0233L115.426 20.3033H118.258L121.138 25.3593H120.13L122.994 20.3033H125.826L121.874 27.0073V32.2233H119.394Z" fill="#313131"/>
<path d="M0 1.58466V0.334657H11.6752V1.58466C8.94268 1.58466 7.45223 2.08466 8.44586 3.08466L16.8917 11.5847V4.83466C16.8917 2.83466 15.6497 1.58466 12.4204 1.58466V0.334657H19.6242V32.3347H12.172V31.3347H14.4076C15.8981 31.3347 16.8917 29.8347 16.8917 28.8347V20.5847L7.70064 29.8347C6.95541 30.5847 9.43949 31.3347 10.1847 31.3347H11.4268V32.3347H0.248408V31.3347C2.23567 31.3347 2.48408 30.5847 3.47771 29.8347L14.6561 18.8347H7.45223C5.46497 18.8347 4.71975 20.0847 4.71975 23.5847H3.47771V9.33466H4.47134C4.47134 12.0847 5.46497 13.8347 7.45223 13.8347H15.1529L6.21019 4.83466C3.49615 2.00824 2.73248 1.58466 0 1.58466Z" fill="#313131"/>
<path d="M39 1.58466V0.334657H27.3248V1.58466C30.0573 1.58466 31.5478 2.08466 30.5541 3.08466L22.1083 11.5847V4.83466C22.1083 2.83466 23.3503 1.58466 26.5796 1.58466V0.334657H19.3758V32.3347H26.828V31.3347H24.5924C23.1019 31.3347 22.1083 29.8347 22.1083 28.8347V20.5847L31.2994 29.8347C32.0446 30.5847 29.5605 31.3347 28.8153 31.3347H27.5732V32.3347H38.7516V31.3347C36.7643 31.3347 36.5159 30.5847 35.5223 29.8347L24.344 18.8347H31.5478C33.535 18.8347 34.2803 20.0847 34.2803 23.5847H35.5223V9.33466H34.5287C34.5287 12.0847 33.535 13.8347 31.5478 13.8347H23.8471L32.7898 4.83466C35.5038 2.00824 36.2675 1.58466 39 1.58466Z" fill="#313131"/>
</svg>
