<svg width="178" height="33" viewBox="0 0 178 33" fill="none" xmlns="http://www.w3.org/2000/svg">
<path d="M52.392 12.304C51.6453 12.304 50.9413 12.1707 50.28 11.904C49.6293 11.6267 49.064 11.2373 48.584 10.736C48.1147 10.2347 47.7627 9.64267 47.528 8.96L49.56 8.048C49.8587 8.69867 50.2693 9.21067 50.792 9.584C51.3253 9.95733 51.912 10.144 52.552 10.144C52.8933 10.144 53.1867 10.0907 53.432 9.984C53.6773 9.87733 53.8693 9.73333 54.008 9.552C54.1467 9.36 54.216 9.136 54.216 8.88C54.216 8.60267 54.1307 8.368 53.96 8.176C53.7893 7.97333 53.5227 7.81333 53.16 7.696L50.824 6.928C49.8747 6.61867 49.16 6.18133 48.68 5.616C48.2 5.04 47.96 4.352 47.96 3.552C47.96 2.848 48.1307 2.22933 48.472 1.696C48.824 1.16267 49.3093 0.746667 49.928 0.448C50.5573 0.149333 51.2773 0 52.088 0C52.8027 0 53.464 0.122667 54.072 0.368C54.68 0.613333 55.2027 0.96 55.64 1.408C56.088 1.856 56.424 2.39467 56.648 3.024L54.632 3.936C54.408 3.38133 54.072 2.94933 53.624 2.64C53.176 2.32 52.664 2.16 52.088 2.16C51.7573 2.16 51.464 2.21333 51.208 2.32C50.952 2.42667 50.7547 2.58133 50.616 2.784C50.4773 2.976 50.408 3.2 50.408 3.456C50.408 3.73333 50.4987 3.97867 50.68 4.192C50.8613 4.39467 51.1333 4.55467 51.496 4.672L53.784 5.408C54.744 5.71733 55.4587 6.14933 55.928 6.704C56.408 7.25867 56.648 7.936 56.648 8.736C56.648 9.42933 56.4667 10.048 56.104 10.592C55.7413 11.1253 55.24 11.5467 54.6 11.856C53.9707 12.1547 53.2347 12.304 52.392 12.304Z" fill="#FAFAFA"/>
<path d="M57.3791 12.112L61.4111 0.191999H64.7071L68.7391 12.112H66.0351L65.2351 9.68H60.8671L60.0671 12.112H57.3791ZM61.5551 7.52H64.5471L62.7231 1.888H63.3951L61.5551 7.52Z" fill="#FAFAFA"/>
<path d="M75.1575 12.304C74.3042 12.304 73.5095 12.1493 72.7735 11.84C72.0482 11.5307 71.4135 11.0987 70.8695 10.544C70.3255 9.98933 69.8988 9.33867 69.5895 8.592C69.2908 7.84533 69.1415 7.02933 69.1415 6.144C69.1415 5.25867 69.2908 4.44267 69.5895 3.696C69.8882 2.93867 70.3095 2.288 70.8535 1.744C71.3975 1.18933 72.0322 0.762666 72.7575 0.464C73.4935 0.154667 74.2935 0 75.1575 0C76.0215 0 76.7948 0.144 77.4775 0.432C78.1708 0.72 78.7575 1.104 79.2375 1.584C79.7175 2.064 80.0588 2.59733 80.2615 3.184L78.0695 4.24C77.8668 3.664 77.5095 3.18933 76.9975 2.816C76.4962 2.432 75.8828 2.24 75.1575 2.24C74.4535 2.24 73.8348 2.40533 73.3015 2.736C72.7682 3.06667 72.3522 3.52533 72.0535 4.112C71.7655 4.688 71.6215 5.36533 71.6215 6.144C71.6215 6.92267 71.7655 7.60533 72.0535 8.192C72.3522 8.77867 72.7682 9.23733 73.3015 9.568C73.8348 9.89867 74.4535 10.064 75.1575 10.064C75.8828 10.064 76.4962 9.87733 76.9975 9.504C77.5095 9.12 77.8668 8.64 78.0695 8.064L80.2615 9.12C80.0588 9.70667 79.7175 10.24 79.2375 10.72C78.7575 11.2 78.1708 11.584 77.4775 11.872C76.7948 12.16 76.0215 12.304 75.1575 12.304Z" fill="#FAFAFA"/>
<path d="M81.8529 12.112V0.191999H86.4129C87.2342 0.191999 87.9595 0.335999 88.5889 0.624C89.2289 0.912 89.7302 1.33867 90.0929 1.904C90.4555 2.46933 90.6369 3.168 90.6369 4C90.6369 4.81067 90.4502 5.504 90.0769 6.08C89.7035 6.64533 89.2022 7.072 88.5729 7.36L91.2929 12.112H88.5089L85.5649 6.848L87.1649 7.792H84.3329V12.112H81.8529ZM84.3329 5.632H86.4289C86.7809 5.632 87.0849 5.56267 87.3409 5.424C87.5969 5.28533 87.7942 5.09333 87.9329 4.848C88.0822 4.60267 88.1569 4.32 88.1569 4C88.1569 3.66933 88.0822 3.38133 87.9329 3.136C87.7942 2.89067 87.5969 2.69867 87.3409 2.56C87.0849 2.42133 86.7809 2.352 86.4289 2.352H84.3329V5.632Z" fill="#FAFAFA"/>
<path d="M92.5247 12.112V0.191999H100.541V2.352H95.0048V5.056H100.221V7.216H95.0048V9.952H100.541V12.112H92.5247Z" fill="#FAFAFA"/>
<path d="M101.947 12.112V0.191999H105.835C107.125 0.191999 108.245 0.448 109.195 0.96C110.144 1.472 110.88 2.176 111.403 3.072C111.925 3.968 112.187 4.992 112.187 6.144C112.187 7.296 111.925 8.32533 111.403 9.232C110.88 10.128 110.144 10.832 109.195 11.344C108.245 11.856 107.125 12.112 105.835 12.112H101.947ZM104.427 9.952H105.899C106.677 9.952 107.349 9.79733 107.915 9.488C108.48 9.168 108.917 8.72533 109.227 8.16C109.547 7.584 109.707 6.912 109.707 6.144C109.707 5.36533 109.547 4.69333 109.227 4.128C108.917 3.56267 108.48 3.12533 107.915 2.816C107.349 2.50667 106.677 2.352 105.899 2.352H104.427V9.952Z" fill="#FAFAFA"/>
<path d="M116.65 12.112V0.191999H121.69C122.511 0.191999 123.215 0.330666 123.802 0.608C124.388 0.885333 124.836 1.28533 125.146 1.808C125.455 2.32 125.61 2.944 125.61 3.68C125.61 4.20267 125.466 4.704 125.178 5.184C124.89 5.65333 124.415 6.048 123.754 6.368V5.152C124.383 5.39733 124.868 5.69067 125.21 6.032C125.551 6.37333 125.786 6.74667 125.914 7.152C126.042 7.54667 126.106 7.96267 126.106 8.4C126.106 9.57333 125.716 10.4853 124.938 11.136C124.159 11.7867 123.076 12.112 121.69 12.112H116.65ZM119.13 9.952H121.978C122.479 9.952 122.879 9.808 123.178 9.52C123.476 9.232 123.626 8.85867 123.626 8.4C123.626 7.93067 123.476 7.552 123.178 7.264C122.879 6.976 122.479 6.832 121.978 6.832H119.13V9.952ZM119.13 4.672H121.866C122.25 4.672 122.554 4.56533 122.778 4.352C123.012 4.128 123.13 3.83467 123.13 3.472C123.13 3.10933 123.012 2.82133 122.778 2.608C122.554 2.384 122.25 2.272 121.866 2.272H119.13V4.672Z" fill="#FAFAFA"/>
<path d="M127.697 12.112V0.191999H132.257C133.078 0.191999 133.803 0.335999 134.433 0.624C135.073 0.912 135.574 1.33867 135.937 1.904C136.299 2.46933 136.481 3.168 136.481 4C136.481 4.81067 136.294 5.504 135.921 6.08C135.547 6.64533 135.046 7.072 134.417 7.36L137.137 12.112H134.353L131.409 6.848L133.009 7.792H130.177V12.112H127.697ZM130.177 5.632H132.273C132.625 5.632 132.929 5.56267 133.185 5.424C133.441 5.28533 133.638 5.09333 133.777 4.848C133.926 4.60267 134.001 4.32 134.001 4C134.001 3.66933 133.926 3.38133 133.777 3.136C133.638 2.89067 133.441 2.69867 133.185 2.56C132.929 2.42133 132.625 2.352 132.273 2.352H130.177V5.632Z" fill="#FAFAFA"/>
<path d="M138.368 12.112V0.191999H146.385V2.352H140.848V5.056H146.064V7.216H140.848V9.952H146.385V12.112H138.368Z" fill="#FAFAFA"/>
<path d="M146.91 12.112L150.942 0.191999H154.238L158.27 12.112H155.566L154.766 9.68H150.398L149.598 12.112H146.91ZM151.086 7.52H154.078L152.254 1.888H152.926L151.086 7.52Z" fill="#FAFAFA"/>
<path d="M160.856 12.112V2.352H157.832V0.191999H166.312V2.352H163.336V12.112H160.856Z" fill="#FAFAFA"/>
<path d="M167.54 12.112V0.191999H170.02V5.344H174.66V0.191999H177.14V12.112H174.66V7.504H170.02V12.112H167.54Z" fill="#FAFAFA"/>
<path d="M47.176 32.112L51.208 20.192H54.504L58.536 32.112H55.832L55.032 29.68H50.664L49.864 32.112H47.176ZM51.352 27.52H54.344L52.52 21.888H53.192L51.352 27.52Z" fill="#FAFAFA"/>
<path d="M59.7747 32.112V20.192H62.2547V29.952H67.2948V32.112H59.7747Z" fill="#FAFAFA"/>
<path d="M73.8763 32.304C73.0229 32.304 72.2282 32.1493 71.4922 31.84C70.7669 31.5307 70.1322 31.0987 69.5882 30.544C69.0442 29.9893 68.6176 29.3387 68.3083 28.592C68.0096 27.8453 67.8603 27.0293 67.8603 26.144C67.8603 25.2587 68.0096 24.4427 68.3083 23.696C68.6069 22.9387 69.0283 22.288 69.5723 21.744C70.1163 21.1893 70.7509 20.7627 71.4762 20.464C72.2122 20.1547 73.0123 20 73.8763 20C74.7403 20 75.5136 20.144 76.1963 20.432C76.8896 20.72 77.4763 21.104 77.9563 21.584C78.4363 22.064 78.7776 22.5973 78.9802 23.184L76.7883 24.24C76.5856 23.664 76.2282 23.1893 75.7162 22.816C75.2149 22.432 74.6016 22.24 73.8763 22.24C73.1723 22.24 72.5536 22.4053 72.0202 22.736C71.4869 23.0667 71.0709 23.5253 70.7722 24.112C70.4842 24.688 70.3402 25.3653 70.3402 26.144C70.3402 26.9227 70.4842 27.6053 70.7722 28.192C71.0709 28.7787 71.4869 29.2373 72.0202 29.568C72.5536 29.8987 73.1723 30.064 73.8763 30.064C74.6016 30.064 75.2149 29.8773 75.7162 29.504C76.2282 29.12 76.5856 28.64 76.7883 28.064L78.9802 29.12C78.7776 29.7067 78.4363 30.24 77.9563 30.72C77.4763 31.2 76.8896 31.584 76.1963 31.872C75.5136 32.16 74.7403 32.304 73.8763 32.304Z" fill="#FAFAFA"/>
<path d="M80.5716 32.112V20.192H83.0516V25.344H87.6916V20.192H90.1716V32.112H87.6916V27.504H83.0516V32.112H80.5716Z" fill="#FAFAFA"/>
<path d="M92.2904 32.112V20.192H100.306V22.352H94.7704V25.056H99.9864V27.216H94.7704V29.952H100.306V32.112H92.2904Z" fill="#FAFAFA"/>
<path d="M101.712 32.112V20.192H104.112L108.576 26.112H107.456L111.792 20.192H114.192V32.112H111.712V22.928L112.704 23.152L108.112 29.072H107.792L103.36 23.152L104.192 22.928V32.112H101.712Z" fill="#FAFAFA"/>
<path d="M119.394 32.112V26.912L115.426 20.192H118.258L121.138 25.248H120.13L122.994 20.192H125.826L121.874 26.896V32.112H119.394Z" fill="#FAFAFA"/>
<path d="M0 1.47333V0.223329H11.6752V1.47333C8.94268 1.47333 7.45223 1.97333 8.44586 2.97333L16.8917 11.4733V4.72333C16.8917 2.72333 15.6497 1.47333 12.4204 1.47333V0.223329H19.6242V32.2233H12.172V31.2233H14.4076C15.8981 31.2233 16.8917 29.7233 16.8917 28.7233V20.4733L7.70064 29.7233C6.95541 30.4733 9.43949 31.2233 10.1847 31.2233H11.4268V32.2233H0.248408V31.2233C2.23567 31.2233 2.48408 30.4733 3.47771 29.7233L14.6561 18.7233H7.45223C5.46497 18.7233 4.71975 19.9733 4.71975 23.4733H3.47771V9.22333H4.47134C4.47134 11.9733 5.46497 13.7233 7.45223 13.7233H15.1529L6.21019 4.72333C3.49615 1.89692 2.73248 1.47333 0 1.47333Z" fill="#FAFAFA"/>
<path d="M39 1.47333V0.223329H27.3248V1.47333C30.0573 1.47333 31.5478 1.97333 30.5541 2.97333L22.1083 11.4733V4.72333C22.1083 2.72333 23.3503 1.47333 26.5796 1.47333V0.223329H19.3758V32.2233H26.828V31.2233H24.5924C23.1019 31.2233 22.1083 29.7233 22.1083 28.7233V20.4733L31.2994 29.7233C32.0446 30.4733 29.5605 31.2233 28.8153 31.2233H27.5732V32.2233H38.7516V31.2233C36.7643 31.2233 36.5159 30.4733 35.5223 29.7233L24.344 18.7233H31.5478C33.535 18.7233 34.2803 19.9733 34.2803 23.4733H35.5223V9.22333H34.5287C34.5287 11.9733 33.535 13.7233 31.5478 13.7233H23.8471L32.7898 4.72333C35.5038 1.89692 36.2675 1.47333 39 1.47333Z" fill="#FAFAFA"/>
</svg>
