<svg width="39" height="33" viewBox="0 0 39 33" fill="none" xmlns="http://www.w3.org/2000/svg">
<path d="M0 1.66602V0.416016H11.6752V1.66602C8.94268 1.66602 7.45223 2.16602 8.44586 3.16602L16.8917 11.666V4.91602C16.8917 2.91602 15.6497 1.66602 12.4204 1.66602V0.416016H19.6242V32.416H12.172V31.416H14.4076C15.8981 31.416 16.8917 29.916 16.8917 28.916V20.666L7.70064 29.916C6.95541 30.666 9.43949 31.416 10.1847 31.416H11.4268V32.416H0.248408V31.416C2.23567 31.416 2.48408 30.666 3.47771 29.916L14.6561 18.916H7.45223C5.46497 18.916 4.71975 20.166 4.71975 23.666H3.47771V9.41602H4.47134C4.47134 12.166 5.46497 13.916 7.45223 13.916H15.1529L6.21019 4.91602C3.49615 2.0896 2.73248 1.66602 0 1.66602Z" fill="#FAFAFA"/>
<path d="M39 1.66602V0.416016H27.3248V1.66602C30.0573 1.66602 31.5478 2.16602 30.5541 3.16602L22.1083 11.666V4.91602C22.1083 2.91602 23.3503 1.66602 26.5796 1.66602V0.416016H19.3758V32.416H26.828V31.416H24.5924C23.1019 31.416 22.1083 29.916 22.1083 28.916V20.666L31.2994 29.916C32.0446 30.666 29.5605 31.416 28.8153 31.416H27.5732V32.416H38.7516V31.416C36.7643 31.416 36.5159 30.666 35.5223 29.916L24.344 18.916H31.5478C33.535 18.916 34.2803 20.166 34.2803 23.666H35.5223V9.41602H34.5287C34.5287 12.166 33.535 13.916 31.5478 13.916H23.8471L32.7898 4.91602C35.5038 2.0896 36.2675 1.66602 39 1.66602Z" fill="#FAFAFA"/>
</svg>
