<svg width="169" height="33" viewBox="0 0 169 33" fill="none" xmlns="http://www.w3.org/2000/svg">
<path d="M44.408 12.6087C43.6507 12.6087 42.9467 12.47 42.296 12.1927C41.656 11.9154 41.1013 11.5314 40.632 11.0407C40.1733 10.5394 39.8373 9.95802 39.624 9.29669L41.432 8.51269C41.72 9.19535 42.136 9.73402 42.68 10.1287C43.224 10.5127 43.8373 10.7047 44.52 10.7047C44.904 10.7047 45.2347 10.646 45.512 10.5287C45.8 10.4007 46.0187 10.23 46.168 10.0167C46.328 9.80335 46.408 9.54735 46.408 9.24869C46.408 8.89669 46.3013 8.60869 46.088 8.38469C45.8853 8.15002 45.576 7.96869 45.16 7.84069L42.872 7.10469C41.944 6.81669 41.2453 6.38469 40.776 5.80869C40.3067 5.23269 40.072 4.55535 40.072 3.77669C40.072 3.09402 40.2373 2.49135 40.568 1.96869C40.9093 1.44602 41.3787 1.04069 41.976 0.752687C42.584 0.454021 43.2773 0.304688 44.056 0.304688C44.7707 0.304688 45.4267 0.432687 46.024 0.688687C46.6213 0.934021 47.1333 1.28069 47.56 1.72869C47.9973 2.16602 48.3227 2.68335 48.536 3.28069L46.744 4.08069C46.5093 3.48335 46.1573 3.02469 45.688 2.70469C45.2187 2.37402 44.6747 2.20869 44.056 2.20869C43.6933 2.20869 43.3733 2.27269 43.096 2.40069C42.8187 2.51802 42.6 2.68869 42.44 2.91269C42.2907 3.12602 42.216 3.38202 42.216 3.68069C42.216 4.01135 42.3227 4.30469 42.536 4.56069C42.7493 4.80602 43.0747 4.99802 43.512 5.13669L45.704 5.82469C46.6533 6.13402 47.3627 6.56069 47.832 7.10469C48.312 7.64869 48.552 8.32069 48.552 9.12069C48.552 9.80335 48.376 10.406 48.024 10.9287C47.672 11.4514 47.1867 11.862 46.568 12.1607C45.9493 12.4594 45.2293 12.6087 44.408 12.6087Z" fill="#313131"/>
<path d="M49.4104 12.4167L53.5224 0.496687H56.3384L60.4504 12.4167H58.0824L57.2344 9.85669H52.6264L51.7624 12.4167H49.4104ZM53.2504 7.93669H56.6104L54.6264 2.00069H55.2344L53.2504 7.93669Z" fill="#313131"/>
<path d="M66.8926 12.6087C66.0393 12.6087 65.25 12.454 64.5246 12.1447C63.81 11.8354 63.1806 11.4034 62.6366 10.8487C62.1033 10.294 61.6873 9.64335 61.3886 8.89669C61.09 8.15002 60.9406 7.33402 60.9406 6.44869C60.9406 5.56335 61.0846 4.74735 61.3726 4.00069C61.6713 3.24335 62.0873 2.59269 62.6206 2.04869C63.1646 1.49402 63.7993 1.06735 64.5246 0.768687C65.25 0.459354 66.0393 0.304688 66.8926 0.304688C67.746 0.304688 68.5086 0.448688 69.1806 0.736688C69.8633 1.02469 70.4393 1.40869 70.9086 1.88869C71.378 2.35802 71.714 2.87535 71.9166 3.44069L69.9646 4.35269C69.7406 3.75535 69.362 3.26469 68.8286 2.88069C68.2953 2.48602 67.65 2.28869 66.8926 2.28869C66.146 2.28869 65.4846 2.46469 64.9086 2.81669C64.3433 3.16869 63.9006 3.65402 63.5806 4.27269C63.2713 4.89135 63.1166 5.61669 63.1166 6.44869C63.1166 7.28069 63.2713 8.01135 63.5806 8.64069C63.9006 9.25935 64.3433 9.74469 64.9086 10.0967C65.4846 10.4487 66.146 10.6247 66.8926 10.6247C67.65 10.6247 68.2953 10.4327 68.8286 10.0487C69.362 9.65402 69.7406 9.15802 69.9646 8.56069L71.9166 9.47269C71.714 10.038 71.378 10.5607 70.9086 11.0407C70.4393 11.51 69.8633 11.8887 69.1806 12.1767C68.5086 12.4647 67.746 12.6087 66.8926 12.6087Z" fill="#313131"/>
<path d="M73.6833 12.4167V0.496687H78.1152C78.9259 0.496687 79.6406 0.646021 80.2592 0.944688C80.8886 1.23269 81.3792 1.65935 81.7312 2.22469C82.0832 2.77935 82.2592 3.45669 82.2592 4.25669C82.2592 5.07802 82.0619 5.77669 81.6673 6.35269C81.2833 6.92869 80.7606 7.35535 80.0993 7.63269L82.8353 12.4167H80.3712L77.4433 7.18469L78.8512 8.01669H75.8593V12.4167H73.6833ZM75.8593 6.09669H78.1472C78.5419 6.09669 78.8832 6.02202 79.1712 5.87269C79.4592 5.71269 79.6832 5.49402 79.8432 5.21669C80.0032 4.93935 80.0833 4.61935 80.0833 4.25669C80.0833 3.88335 80.0032 3.56335 79.8432 3.29669C79.6832 3.01935 79.4592 2.80602 79.1712 2.65669C78.8832 2.49669 78.5419 2.41669 78.1472 2.41669H75.8593V6.09669Z" fill="#313131"/>
<path d="M84.2614 12.4167V0.496687H92.1814V2.41669H86.4374V5.47269H91.8614V7.39269H86.4374V10.4967H92.1814V12.4167H84.2614Z" fill="#313131"/>
<path d="M93.777 12.4167V0.496687H97.665C98.9237 0.496687 100.017 0.752687 100.945 1.26469C101.884 1.76602 102.609 2.46469 103.121 3.36069C103.633 4.24602 103.889 5.27535 103.889 6.44869C103.889 7.61135 103.633 8.64602 103.121 9.55269C102.609 10.4487 101.884 11.1527 100.945 11.6647C100.017 12.166 98.9237 12.4167 97.665 12.4167H93.777ZM95.953 10.4967H97.713C98.5237 10.4967 99.2223 10.3314 99.809 10.0007C100.406 9.65935 100.87 9.19002 101.201 8.59269C101.532 7.98469 101.697 7.27002 101.697 6.44869C101.697 5.61669 101.532 4.90202 101.201 4.30469C100.87 3.70735 100.406 3.24335 99.809 2.91269C99.2223 2.58202 98.5237 2.41669 97.713 2.41669H95.953V10.4967Z" fill="#313131"/>
<path d="M108.465 12.4167V0.496687H113.489C114.278 0.496687 114.95 0.635354 115.505 0.912687C116.07 1.17935 116.502 1.56335 116.8 2.06469C117.11 2.55535 117.265 3.15269 117.265 3.85669C117.265 4.40069 117.115 4.91269 116.816 5.39269C116.528 5.86202 116.064 6.25135 115.424 6.56069V5.55269C116.011 5.77669 116.475 6.05402 116.816 6.38469C117.158 6.71535 117.398 7.08335 117.536 7.48869C117.675 7.89402 117.744 8.32069 117.744 8.76869C117.744 9.91002 117.366 10.806 116.608 11.4567C115.862 12.0967 114.822 12.4167 113.489 12.4167H108.465ZM110.641 10.4967H113.713C114.278 10.4967 114.726 10.342 115.057 10.0327C115.398 9.71269 115.568 9.29135 115.568 8.76869C115.568 8.24602 115.398 7.82469 115.057 7.50469C114.726 7.18469 114.278 7.02469 113.713 7.02469H110.641V10.4967ZM110.641 5.12069H113.601C114.049 5.12069 114.406 4.99269 114.673 4.73669C114.939 4.47002 115.073 4.12869 115.073 3.71269C115.073 3.29669 114.939 2.96602 114.673 2.72069C114.406 2.47535 114.049 2.35269 113.601 2.35269H110.641V5.12069Z" fill="#313131"/>
<path d="M119.527 12.4167V0.496687H123.959C124.77 0.496687 125.484 0.646021 126.103 0.944688C126.732 1.23269 127.223 1.65935 127.575 2.22469C127.927 2.77935 128.103 3.45669 128.103 4.25669C128.103 5.07802 127.906 5.77669 127.511 6.35269C127.127 6.92869 126.604 7.35535 125.943 7.63269L128.679 12.4167H126.215L123.287 7.18469L124.695 8.01669H121.703V12.4167H119.527ZM121.703 6.09669H123.991C124.386 6.09669 124.727 6.02202 125.015 5.87269C125.303 5.71269 125.527 5.49402 125.687 5.21669C125.847 4.93935 125.927 4.61935 125.927 4.25669C125.927 3.88335 125.847 3.56335 125.687 3.29669C125.527 3.01935 125.303 2.80602 125.015 2.65669C124.727 2.49669 124.386 2.41669 123.991 2.41669H121.703V6.09669Z" fill="#313131"/>
<path d="M130.105 12.4167V0.496687H138.025V2.41669H132.281V5.47269H137.705V7.39269H132.281V10.4967H138.025V12.4167H130.105Z" fill="#313131"/>
<path d="M138.645 12.4167L142.757 0.496687H145.573L149.685 12.4167H147.317L146.469 9.85669H141.861L140.997 12.4167H138.645ZM142.485 7.93669H145.845L143.861 2.00069H144.469L142.485 7.93669Z" fill="#313131"/>
<path d="M152.327 12.4167V2.41669H149.238V0.496687H157.559V2.41669H154.518V12.4167H152.327Z" fill="#313131"/>
<path d="M158.886 12.4167V0.496687H161.062V5.69669H166.134V0.496687H168.326V12.4167H166.134V7.61669H161.062V12.4167H158.886Z" fill="#313131"/>
<path d="M39.176 32.4167L43.288 20.4967H46.104L50.216 32.4167H47.848L47 29.8567H42.392L41.528 32.4167H39.176ZM43.016 27.9367H46.376L44.392 22.0007H45L43.016 27.9367Z" fill="#313131"/>
<path d="M51.5426 32.4167V20.4967H53.7186V30.4967H58.8226V32.4167H51.5426Z" fill="#313131"/>
<path d="M65.5176 32.6087C64.6643 32.6087 63.875 32.454 63.1496 32.1447C62.435 31.8354 61.8056 31.4034 61.2616 30.8487C60.7283 30.294 60.3123 29.6434 60.0136 28.8967C59.715 28.15 59.5656 27.334 59.5656 26.4487C59.5656 25.5634 59.7096 24.7474 59.9976 24.0007C60.2963 23.2434 60.7123 22.5927 61.2456 22.0487C61.7896 21.494 62.4243 21.0674 63.1496 20.7687C63.875 20.4594 64.6643 20.3047 65.5176 20.3047C66.371 20.3047 67.1336 20.4487 67.8056 20.7367C68.4883 21.0247 69.0643 21.4087 69.5336 21.8887C70.003 22.358 70.339 22.8754 70.5416 23.4407L68.5896 24.3527C68.3656 23.7554 67.987 23.2647 67.4536 22.8807C66.9203 22.486 66.275 22.2887 65.5176 22.2887C64.771 22.2887 64.1096 22.4647 63.5336 22.8167C62.9683 23.1687 62.5256 23.654 62.2056 24.2727C61.8963 24.8914 61.7416 25.6167 61.7416 26.4487C61.7416 27.2807 61.8963 28.0114 62.2056 28.6407C62.5256 29.2594 62.9683 29.7447 63.5336 30.0967C64.1096 30.4487 64.771 30.6247 65.5176 30.6247C66.275 30.6247 66.9203 30.4327 67.4536 30.0487C67.987 29.654 68.3656 29.158 68.5896 28.5607L70.5416 29.4727C70.339 30.038 70.003 30.5607 69.5336 31.0407C69.0643 31.51 68.4883 31.8887 67.8056 32.1767C67.1336 32.4647 66.371 32.6087 65.5176 32.6087Z" fill="#313131"/>
<path d="M72.3083 32.4167V20.4967H74.4843V25.6967H79.5563V20.4967H81.7483V32.4167H79.5563V27.6167H74.4843V32.4167H72.3083Z" fill="#313131"/>
<path d="M84.0426 32.4167V20.4967H91.9626V22.4167H86.2186V25.4727H91.6426V27.3927H86.2186V30.4967H91.9626V32.4167H84.0426Z" fill="#313131"/>
<path d="M93.5583 32.4167V20.4967H95.6383L100.102 26.5607H99.1103L103.478 20.4967H105.558V32.4167H103.366V22.9767L104.214 23.1847L99.6862 29.2167H99.4303L95.0143 23.1847L95.7343 22.9767V32.4167H93.5583Z" fill="#313131"/>
<path d="M110.88 32.4167V27.1367L106.864 20.4967H109.343L112.415 25.6807H111.535L114.591 20.4967H117.072L113.072 27.1207V32.4167H110.88Z" fill="#313131"/>
<path d="M0 32.4167L11.2489 18.792H1.07355V13.8621H11.1089L0 0.416688H6.67468L13.7694 9.02173V0.416688H19.2305V9.11137L26.372 0.416688H33L21.8911 13.8621H31.9264V18.792H21.7511L33 32.4167H26.372L19.2305 23.7668V32.4167H13.7694V23.8116L6.67468 32.4167H0Z" fill="#313131"/>
</svg>
